<?xml version="1.0" encoding="utf-8"?>
<!-- Generator: Adobe Illustrator 19.2.1, SVG Export Plug-In . SVG Version: 6.00 Build 0)  -->
<svg version="1.1" id="Layer_1" xmlns="http://www.w3.org/2000/svg" xmlns:xlink="http://www.w3.org/1999/xlink" x="0px" y="0px"
	 viewBox="0 0 180 180" style="enable-background:new 0 0 180 180;" xml:space="preserve">
<style type="text/css">
	.st0{fill:#231F20;}
</style>
<g>
	<path class="st0" d="M90,168.6c-43.4,0-78.6-35.3-78.6-78.6S46.6,11.4,90,11.4s78.6,35.3,78.6,78.6S133.4,168.6,90,168.6z M90,19.4
		c-38.9,0-70.6,31.7-70.6,70.6s31.7,70.6,70.6,70.6s70.6-31.7,70.6-70.6S128.9,19.4,90,19.4z"/>
	<circle class="st0" cx="120.9" cy="107.4" r="10.8"/>
	<circle class="st0" cx="59.1" cy="107.4" r="10.8"/>
	<path class="st0" d="M123.7,72.9c-1.4,0-2.8-0.8-3.5-2.1c-5.9-11.2-17.4-18.2-30.1-18.2c-12.7,0-24.2,7-30.1,18.2
		c-1,2-3.4,2.7-5.4,1.7c-2-1-2.7-3.4-1.7-5.4C60.1,53.2,74.4,44.6,90,44.6s29.9,8.6,37.2,22.5c1,2,0.3,4.4-1.7,5.4
		C124.9,72.8,124.3,72.9,123.7,72.9z"/>
</g>
</svg>
