<?xml version="1.0" encoding="utf-8"?>
<!-- Generator: Adobe Illustrator 19.2.1, SVG Export Plug-In . SVG Version: 6.00 Build 0)  -->
<svg version="1.1" id="Layer_1" xmlns="http://www.w3.org/2000/svg" xmlns:xlink="http://www.w3.org/1999/xlink" x="0px" y="0px"
	 viewBox="0 0 180 180" style="enable-background:new 0 0 180 180;" xml:space="preserve">
<style type="text/css">
	.st0{fill:#231F20;}
</style>
<g>
	<g>
		<path class="st0" d="M90,138.4c-15.6,0-29.9-8.6-37.2-22.5c-1-2-0.3-4.4,1.7-5.4c2-1,4.4-0.3,5.4,1.7
			c5.9,11.2,17.4,18.2,30.1,18.2s24.2-7,30.1-18.2c1-2,3.4-2.7,5.4-1.7c2,1,2.7,3.4,1.7,5.4C119.9,129.8,105.6,138.4,90,138.4z"/>
	</g>
	<path class="st0" d="M90,168.6c-43.4,0-78.6-35.3-78.6-78.6S46.6,11.4,90,11.4s78.6,35.3,78.6,78.6S133.4,168.6,90,168.6z M90,19.4
		c-38.9,0-70.6,31.7-70.6,70.6s31.7,70.6,70.6,70.6s70.6-31.7,70.6-70.6S128.9,19.4,90,19.4z"/>
	<path class="st0" d="M63.2,98.9c-0.4,0-0.9-0.1-1.3-0.2C60.7,98.3,31.8,88,28.3,68.5c-1.1-6.1,2.3-13.2,8.1-16.8
		c5.6-3.5,12.5-3.4,19.3,0.2c5.1-5.8,11.5-8.2,18-6.8c6.6,1.4,12.3,6.9,13.3,13.1c3.4,19.5-20.2,39-21.3,39.8
		C65,98.6,64.1,98.9,63.2,98.9z M45.4,57.1c-1.7,0-3.3,0.5-4.8,1.4c-3.4,2.1-4.9,6.1-4.5,8.7c2,11.3,18,19.9,26.2,23.2
		c6.6-5.9,18.7-19.5,16.7-30.7c-0.5-2.6-3.3-5.8-7.2-6.6c-4.3-0.9-8.5,1.3-12.1,6.5c-0.6,0.9-1.5,1.5-2.6,1.7
		c-1.1,0.2-2.1-0.1-3-0.7C51.1,58.2,48.1,57.1,45.4,57.1z"/>
	<path class="st0" d="M116.8,98.9c-0.9,0-1.8-0.3-2.5-0.9c-1-0.8-24.7-20.3-21.3-39.8c1.1-6.1,6.7-11.6,13.3-13.1
		c6.5-1.4,12.9,1.1,18,6.8c6.8-3.7,13.6-3.8,19.3-0.2c5.8,3.6,9.1,10.7,8.1,16.8c-3.4,19.5-32.4,29.7-33.6,30.1
		C117.7,98.8,117.2,98.9,116.8,98.9z M109.9,52.7c-0.6,0-1.3,0.1-1.9,0.2c-3.9,0.8-6.7,4-7.2,6.6c-2,11.3,10.1,24.9,16.7,30.8
		c8.2-3.3,24.2-11.9,26.2-23.2c0.5-2.6-1.1-6.6-4.5-8.7c-3.7-2.4-8.4-1.7-13.6,2c-0.9,0.6-2,0.9-3,0.7c-1.1-0.2-2-0.8-2.6-1.7
		C117.1,55,113.6,52.7,109.9,52.7z"/>
</g>
</svg>
