<?xml version="1.0" encoding="utf-8"?>
<!-- Generator: Adobe Illustrator 19.2.1, SVG Export Plug-In . SVG Version: 6.00 Build 0)  -->
<svg version="1.1" id="Layer_1" xmlns="http://www.w3.org/2000/svg" xmlns:xlink="http://www.w3.org/1999/xlink" x="0px" y="0px"
	 viewBox="0 0 180 180" style="enable-background:new 0 0 180 180;" xml:space="preserve">
<style type="text/css">
	.st0{fill:#231F20;}
</style>
<g>
	<circle class="st0" cx="53.7" cy="72.6" r="10.8"/>
	<path class="st0" d="M165.8,90.6c-0.8-0.5-1.7-1-2.6-1.3c-0.3-43-35.5-78-78.6-78C41.2,11.4,6,46.6,6,90
		c0,43.4,35.3,78.6,78.6,78.6c27.4,0,51.6-14.1,65.7-35.4c9.1-4.8,21.4-13.4,23.6-25.7C174.9,101.4,171.5,94.3,165.8,90.6z
		 M84.6,160.6C45.7,160.6,14,128.9,14,90c0-38.9,31.7-70.6,70.6-70.6c38.3,0,69.6,30.7,70.6,68.8c-2.8,0.3-5.8,1.2-8.7,2.7
		c-5.1-5.8-11.5-8.2-18-6.8c-6.6,1.5-12.3,6.9-13.3,13.1c-3.4,19.5,20.2,39,21.3,39.8c0.2,0.1,0.4,0.3,0.6,0.4
		C124,151.6,105.3,160.6,84.6,160.6z M166,106.1c-0.8,4.6-4,8.8-8.1,12.4c-4.1,3.6-9,6.5-13.2,8.6c-1.8,0.9-3.5,1.7-5,2.3
		c-6.6-5.9-18.7-19.5-16.7-30.8c0.5-2.6,3.3-5.8,7.2-6.6c0.6-0.1,1.3-0.2,1.9-0.2c3.6,0,7.1,2.3,10.2,6.8c0.6,0.9,1.5,1.5,2.6,1.7
		c1,0.2,2.1-0.1,3-0.7c2.5-1.8,4.8-2.8,7.1-3.2c2.4-0.4,4.6,0,6.5,1.2c0.5,0.3,0.9,0.6,1.3,1C165.3,100.6,166.4,103.9,166,106.1z"/>
	<path class="st0" d="M123,75.8c0.7,0.5,1.5,0.8,2.3,0.8c1.2,0,2.5-0.6,3.3-1.7c1.3-1.8,0.9-4.3-0.9-5.6c-0.5-0.4-5.6-3.9-12.1-3.9
		c-6.6,0-11.6,3.5-12.1,3.9c-1.8,1.3-2.2,3.8-0.9,5.6c1.3,1.8,3.8,2.2,5.6,1c0,0,3.4-2.4,7.5-2.4S123,75.8,123,75.8z"/>
	<path class="st0" d="M100,102.1c-4.3-3.6-11.6-4.5-21.6-2.6c-2.2,0.4-3.6,2.5-3.2,4.7c0.4,2.2,2.5,3.6,4.7,3.2
		c10.3-1.9,14,0,15,0.9c0.6,0.5,1.3,1.3,1.3,3.3c0,1.3-0.4,2.1-1.3,2.9c-0.3,0.2-0.6,0.4-0.9,0.6c-2.4,1.2-7.1,1.9-13.9,0.3
		c-0.5-0.1-1-0.1-1.5,0c-0.2,0-0.5,0.1-0.7,0.2c-0.1,0-0.2,0.1-0.3,0.1c-0.3,0.1-0.5,0.3-0.8,0.4c-0.1,0-0.1,0.1-0.2,0.2
		c-0.1,0-0.1,0.1-0.2,0.2c-0.1,0.1-0.1,0.1-0.2,0.2c-0.2,0.3-0.4,0.5-0.6,0.9c0,0.1-0.1,0.2-0.1,0.3c-0.1,0.2-0.2,0.5-0.2,0.7
		c0,0,0,0,0,0c0,0.1,0,0.2-0.1,0.3c0,0.1,0,0.2,0,0.2c0,0.1,0,0.3,0,0.4c0,0.2,0,0.5,0.1,0.7c0,0.2,0.1,0.4,0.2,0.6
		c0,0.1,0.1,0.2,0.1,0.3c0.2,0.4,0.4,0.8,0.7,1.1c0.1,0.1,0.2,0.2,0.2,0.2c0.3,0.3,0.7,0.5,1,0.7c0.1,0,0.2,0.1,0.3,0.1c0,0,0,0,0,0
		c0.1,0,0.2,0.1,0.3,0.1c0,0,0.1,0,0.1,0c0.1,0,0.1,0,0.2,0c3.3,0.7,6.3,1.1,9.1,1.1c2.4,0,4.5-0.3,6.5-0.8c0.4,0.2,0.7,0.4,0.9,0.6
		c0.6,0.5,1.3,1.3,1.3,3.3c0,1.3-0.4,2.1-1.3,2.9c-2,1.6-7,2.7-14.9,0.9c-2.2-0.5-4.3,0.9-4.8,3c-0.5,2.2,0.9,4.3,3,4.8
		c3.3,0.8,6.4,1.1,9.3,1.1c5.1,0,9.4-1.2,12.3-3.6c2.8-2.3,4.3-5.4,4.3-9.1c0-3.2-1-6-2.8-8.2c1.9-2.1,2.8-4.7,2.8-7.7
		C104.2,107.7,102.7,104.4,100,102.1z"/>
</g>
</svg>
