<?xml version="1.0" encoding="utf-8"?>
<!-- Generator: Adobe Illustrator 19.2.1, SVG Export Plug-In . SVG Version: 6.00 Build 0)  -->
<svg version="1.1" id="Layer_1" xmlns="http://www.w3.org/2000/svg" xmlns:xlink="http://www.w3.org/1999/xlink" x="0px" y="0px"
	 viewBox="0 0 144 180" style="enable-background:new 0 0 144 180;" xml:space="preserve">
<style type="text/css">
	.st0{fill:#231F20;}
</style>
<path class="st0" d="M114.7,19.3c-4.7-1.3-9.1-0.5-12.7,2.3c-3.1,2.4-5.4,6.2-6.7,10.9l-9.1,33.9L75.6,28c-1.3-4.7-3.7-8.3-7.2-10.5
	c-3.6-2.2-7.9-2.8-12.6-1.5c-8.8,2.4-12.7,10.7-9.9,21.3l10.7,38.7c-3.2-0.3-7.3-0.1-11.1,1.8c-4.2,2-7.2,5.6-9,10.5
	c-3.4,0-8.7,0.6-12.6,4c-3.3,2.8-5,6.9-5,12c0,6.3,3.9,20.7,11.5,27.7c3.9,19.3,20.3,32.6,40.5,32.6c31.4,0,38.4-17,43.7-37.6
	c1.6-6.1,4.3-17.1-5.9-25.5L124,41.8C127,30.6,123.3,21.6,114.7,19.3 M26,104.3c0-3,0.8-5.2,2.5-6.7c2-1.7,5.1-2.3,7.5-2.3
	c0.6,4,2.1,8.5,3.6,12.3c1.5,3.8,3.5,7.9,5.8,11.7c1.4,3.1,1.9,5.2,1.4,6.3c-0.5,1.1-2.2,2.2-5.3,3.3c-1.8,0.5-3.6,0.1-5.4-1.2
	C30,123,26,109.7,26,104.3 M107.9,125.3c-5,19.6-10.3,32.4-36.9,32.4c-16.8,0-27.6-10.3-32-21.5c0.4,0,0.7,0,1.1,0
	c1.2,0,2.4-0.2,3.6-0.5c0.1,0,0.1,0,0.2-0.1c3.4-1.2,7.5-3,9.3-6.8c1.1,0.9,2.2,1.6,3.3,2c2.2,0.8,4.1,1.1,5.9,1.1
	c2.8,0,4.9-0.8,6.5-1.6c3.2-1.7,5.6-4.6,6.5-7.9c0.1-0.6,0.2-1.1,0.3-1.6c0.3,0.1,0.6,0.2,1,0.4c2.2,0.7,4.5,1.4,6.4,1.8l-5.4,13.9
	c-0.7,1.8,0.2,3.8,2,4.5c1.8,0.7,3.8-0.2,4.5-2l6.8-17.7c0.4-1,0.3-2-0.2-3c-0.5-0.9-1.4-1.5-2.4-1.7c0,0-5.2-1-9.6-2.5
	c-6.7-2.3-12.2-6.4-13.6-10.1c-0.5-1.4-0.5-2.7,0.2-3.9c2.9-5.4,8.6-4.2,24.5,0l0.8,0.2c5.2,1.4,9.1,3.1,11.8,4.9
	c0.2,0.1,0.3,0.2,0.5,0.3C111.3,111.7,109.5,119.1,107.9,125.3 M117.2,40l-14.7,57.6c-2.8-1.4-6.1-2.6-10-3.6l-0.8-0.2
	c-16.1-4.3-26.8-7.1-32.5,3.4c-1.7,3.1-1.9,6.4-0.6,9.8c1.5,3.9,5,7.6,9.9,10.5c0.1,0.1,0.5,1.1,0,3.2c-0.3,1.1-1.2,2.6-3,3.5
	c-1.9,1-4.2,1-6.8,0.1c-2.3-0.8-6.9-6.5-11.1-15.8c-3.7-8-4.8-13.8-4.8-16.1c0-0.1,0-0.3,0-0.4c0-0.2,0-0.4,0.1-0.5
	c0.1-0.1,0.1-0.3,0.2-0.4c3.2-9.3,11.8-8.4,15.6-7.6l0.9,3.3c0.5,1.9,2.4,3,4.3,2.4c1.9-0.5,3-2.4,2.4-4.3L52.7,35.5
	c-1.1-4-1.8-10.9,4.9-12.7c7.6-2,10.3,3.5,11.2,7.1l14,50.7c0.4,1.5,1.8,2.6,3.4,2.6c1.6,0,3-1.1,3.4-2.6l12.5-46.3
	c0.9-3.2,2.3-5.7,4.2-7.2c1.8-1.4,4-1.8,6.6-1.1c2.4,0.6,3.9,2.2,4.7,4.6C118.3,33.2,118.2,36.5,117.2,40"/>
</svg>
